<svg xmlns="http://www.w3.org/2000/svg" width="10.142" height="9.596" viewBox="0 0 10.142 9.596">
  <g id="list" transform="translate(0 -64.267)">
    <path id="Path_3590" data-name="Path 3590" d="M9.209,64.267H.933a.934.934,0,0,0,0,1.867H9.209a.934.934,0,0,0,0-1.867Z" fill="#000"/>
    <path id="Path_3591" data-name="Path 3591" d="M9.209,208.867H.933a.934.934,0,0,0,0,1.867H9.209a.934.934,0,0,0,0-1.867Z" transform="translate(0 -140.736)" fill="#000"/>
    <path id="Path_3592" data-name="Path 3592" d="M9.209,353.467H.933a.934.934,0,0,0,0,1.867H9.209a.934.934,0,0,0,0-1.867Z" transform="translate(0 -281.471)" fill="#000"/>
  </g>
</svg>
