<svg xmlns="http://www.w3.org/2000/svg" width="295.565" height="49.779" viewBox="0 0 295.565 49.779">
  <g id="Group_2560" data-name="Group 2560" transform="translate(-59.999 -77)">
    <path id="Path_2061" data-name="Path 2061" d="M35.852-39.389v7.51H23.49V7h-9.3v-38.88H1.824v-7.51ZM76.858-12.206a21.958,21.958,0,0,1-.266,3.589H49.676A9.154,9.154,0,0,0,52.467-2.37,8.607,8.607,0,0,0,58.515-.11a7.6,7.6,0,0,0,7.377-4.453H75.928a16.771,16.771,0,0,1-6.114,8.74A17.85,17.85,0,0,1,58.715,7.6,19.206,19.206,0,0,1,49.177,5.24,16.606,16.606,0,0,1,42.6-1.439a20.466,20.466,0,0,1-2.359-9.969,20.847,20.847,0,0,1,2.326-10.036,16.231,16.231,0,0,1,6.513-6.646,19.512,19.512,0,0,1,9.637-2.326,19.357,19.357,0,0,1,9.4,2.26,15.9,15.9,0,0,1,6.447,6.413A19.408,19.408,0,0,1,76.858-12.206Zm-9.637-2.658a7.379,7.379,0,0,0-2.592-5.749,9.183,9.183,0,0,0-6.181-2.16,8.446,8.446,0,0,0-5.815,2.094,9.2,9.2,0,0,0-2.891,5.815ZM92.942-42.18V7h-9.3V-42.18Zm18.476,0V7h-9.3V-42.18Zm43.4,29.974a21.96,21.96,0,0,1-.266,3.589H127.634a9.154,9.154,0,0,0,2.791,6.247,8.607,8.607,0,0,0,6.048,2.26,7.6,7.6,0,0,0,7.377-4.453h10.036a16.772,16.772,0,0,1-6.114,8.74,17.85,17.85,0,0,1-11.1,3.423,19.207,19.207,0,0,1-9.537-2.359,16.606,16.606,0,0,1-6.58-6.679,20.466,20.466,0,0,1-2.359-9.969,20.847,20.847,0,0,1,2.326-10.036,16.23,16.23,0,0,1,6.513-6.646,19.512,19.512,0,0,1,9.637-2.326,19.357,19.357,0,0,1,9.4,2.26,15.9,15.9,0,0,1,6.447,6.413A19.408,19.408,0,0,1,154.817-12.206Zm-9.637-2.658a7.379,7.379,0,0,0-2.592-5.749,9.183,9.183,0,0,0-6.181-2.16,8.446,8.446,0,0,0-5.815,2.094,9.2,9.2,0,0,0-2.891,5.815ZM170.9-24.1a13.082,13.082,0,0,1,4.686-4.586A13.031,13.031,0,0,1,182.2-30.35v9.77H179.74q-4.386,0-6.613,2.06T170.9-11.342V7h-9.3V-29.818h9.3ZM204.8,7.6a19.394,19.394,0,0,1-9.57-2.359,16.99,16.99,0,0,1-6.679-6.679,20.014,20.014,0,0,1-2.426-9.969,19.589,19.589,0,0,1,2.492-9.969,17.319,17.319,0,0,1,6.812-6.679,19.771,19.771,0,0,1,9.637-2.359,19.771,19.771,0,0,1,9.637,2.359,17.319,17.319,0,0,1,6.812,6.679A19.589,19.589,0,0,1,224-11.409a19.189,19.189,0,0,1-2.559,9.969,17.719,17.719,0,0,1-6.912,6.679A20.1,20.1,0,0,1,204.8,7.6Zm0-8.108a9.679,9.679,0,0,0,4.752-1.23A8.936,8.936,0,0,0,213.1-5.427a12.43,12.43,0,0,0,1.329-5.981q0-5.25-2.758-8.075a9.067,9.067,0,0,0-6.746-2.825,8.853,8.853,0,0,0-6.679,2.825q-2.692,2.825-2.692,8.075t2.625,8.075A8.644,8.644,0,0,0,204.8-.509Z" transform="translate(131.561 119.18)" fill="#021668"/>
    <g id="Group_2252" data-name="Group 2252" transform="translate(59.999 77)">
      <path id="Path_2057" data-name="Path 2057" d="M436.817,82.1a12.94,12.94,0,0,1,12.94,12.94v19.815a2.848,2.848,0,0,1-2.844,2.848h-7.258a2.845,2.845,0,0,1-2.845-2.845v0Z" transform="translate(-407.514 -69.146)" fill="#07f"/>
      <path id="Path_2058" data-name="Path 2058" d="M374.153,48.422a12.913,12.913,0,0,1,3.8,9.152h-23.06a2.845,2.845,0,0,1-2.845-2.845V47.468a2.845,2.845,0,0,1,2.841-2.848h10.1A12.9,12.9,0,0,1,374.153,48.422Z" transform="translate(-352.05 -44.62)" fill="#01e7ff"/>
      <path id="Path_2059" data-name="Path 2059" d="M393.275,85.862a12.892,12.892,0,0,1,9.152-3.8v32.755a2.845,2.845,0,0,1-2.841,2.848h-7.262a2.845,2.845,0,0,1-2.845-2.845v-19.8A12.913,12.913,0,0,1,393.275,85.862Z" transform="translate(-376.543 -69.12)" fill="#07f"/>
      <path id="Path_2060" data-name="Path 2060" d="M462.711,47.518v7.258a2.845,2.845,0,0,1-2.841,2.848H436.83A12.94,12.94,0,0,1,449.767,44.68h10.1A2.844,2.844,0,0,1,462.711,47.518Z" transform="translate(-407.528 -44.659)" fill="#01e7ff"/>
    </g>
  </g>
</svg>
